<?xml version="1.0" standalone="no"?>
<!DOCTYPE svg PUBLIC "-//W3C//DTD SVG 20010904//EN"
 "http://www.w3.org/TR/2001/REC-SVG-20010904/DTD/svg10.dtd">
<svg version="1.0" xmlns="http://www.w3.org/2000/svg"
 width="980.000000pt" height="980.000000pt" viewBox="0 0 980.000000 980.000000"
 preserveAspectRatio="xMidYMid meet">
<metadata>
Created by potrace 1.16, written by Peter Selinger 2001-2019
</metadata>
<g transform="translate(0.000000,980.000000) scale(0.100000,-0.100000)"
fill="#000000" stroke="none">
<path d="M4640 9793 c-381 -26 -614 -62 -940 -143 -590 -147 -1173 -420 -1675
-785 -406 -296 -815 -706 -1103 -1108 -728 -1016 -1039 -2244 -881 -3482 118
-922 488 -1770 1094 -2507 140 -170 461 -491 633 -633 1073 -885 2424 -1273
3787 -1090 1037 140 1999 607 2750 1337 299 290 538 586 766 951 107 171 304
560 378 747 623 1576 404 3336 -584 4695 -284 390 -665 775 -1050 1060 -857
636 -1885 972 -2940 963 -104 -1 -210 -3 -235 -5z m688 -719 c1123 -117 2142
-674 2849 -1557 446 -556 743 -1218 862 -1925 74 -441 74 -943 0 -1384 -172
-1020 -711 -1936 -1522 -2585 -558 -448 -1216 -742 -1930 -863 -432 -73 -940
-73 -1374 0 -1489 250 -2723 1272 -3252 2692 -122 328 -202 684 -242 1073 -18
176 -16 607 5 793 58 530 187 977 415 1438 481 972 1314 1718 2336 2091 381
139 785 220 1240 247 113 7 470 -5 613 -20z"/>
<path d="M3070 7351 c-86 -28 -139 -83 -265 -272 -157 -235 -274 -484 -332
-705 -25 -99 -28 -124 -27 -269 1 -139 4 -173 27 -258 147 -551 664 -1297
1409 -2033 352 -349 617 -574 974 -831 378 -271 792 -475 1073 -527 221 -42
518 8 781 131 204 95 538 314 597 391 79 105 67 258 -29 348 -18 18 -282 237
-586 487 -579 476 -594 487 -687 487 -91 0 -131 -24 -275 -166 -157 -154 -197
-178 -300 -178 -126 1 -102 -19 -772 652 -670 671 -638 633 -638 766 0 98 30
148 179 300 109 112 131 139 146 185 21 64 16 143 -12 199 -18 35 -908 1118
-995 1210 -23 24 -59 52 -82 64 -44 22 -145 33 -186 19z"/>
</g>
</svg>
